<svg xmlns="http://www.w3.org/2000/svg" aria-hidden="true" style="position:absolute;width:0;height:0;overflow:hidden"><defs><symbol id="icon-diagram-1" viewBox="0 0 32 32"><path fill="#4d5ae5" d="M14.926 14.965h1.066v4.798h-1.066v-4.797zM19.19 17.097h1.066v2.665H19.19v-2.665zM10.661 18.696h1.066v1.066h-1.066v-1.066zM7.463 18.163h1.066v1.599H7.463v-1.599z" style="fill:var(--color1, #4d5ae5)"/><path fill="#2e2f42" d="M1.599 28.291h25.587a1.6 1.6 0 0 0 1.599-1.599V24.56a1.6 1.6 0 0 0-1.599-1.599h-.533V9.668L29.681 6.8a1.608 1.608 0 1 0-.746-.763L26.654 8.2V6.97a1.6 1.6 0 0 0-1.599-1.599H3.733A1.6 1.6 0 0 0 2.134 6.97v15.992h-.533a1.6 1.6 0 0 0-1.599 1.599v2.132a1.6 1.6 0 0 0 1.599 1.599zM30.384 4.837a.533.533 0 1 1 0 1.067.533.533 0 0 1 0-1.067zM3.198 6.969c0-.294.239-.533.533-.533h21.322c.294 0 .533.239.533.533v2.239l-1.066 1.013V8.035a.533.533 0 0 0-.533-.533H4.797a.533.533 0 0 0-.533.533v13.326c0 .294.239.533.533.533h19.19a.533.533 0 0 0 .533-.533v-9.674l1.066-1.01v12.284H3.198V6.969zm4.798 6.93a1.598 1.598 0 1 0 1.107 2.749l1.853.93a.532.532 0 0 0 .636-.123l3.939-4.431 3.872 2.901a.533.533 0 0 0 .686-.039l3.365-3.188v8.131H5.33V8.569h18.124v2.66l-3.771 3.572-3.904-2.927a.533.533 0 0 0-.718.072l-3.993 4.493-1.493-.746c.011-.064.018-.129.02-.193a1.6 1.6 0 0 0-1.599-1.599zm.533 1.599a.533.533 0 1 1-1.067 0 .533.533 0 0 1 1.067 0zm3.198 8.529h5.331v.533a.533.533 0 0 1-.533.533h-4.264a.533.533 0 0 1-.533-.533v-.533zm-10.661.533c0-.294.239-.533.533-.533h9.062v.533a1.6 1.6 0 0 0 1.599 1.599h4.264a1.6 1.6 0 0 0 1.599-1.599v-.533h9.062c.294 0 .533.239.533.533v2.132a.533.533 0 0 1-.533.533H1.598a.533.533 0 0 1-.533-.533V24.56z" style="fill:var(--color2, #2e2f42)"/></symbol><symbol id="icon-clock-1" viewBox="0 0 32 32"><path fill="#2e2f42" d="M31.297 15.301C31.295 6.849 24.442-.002 15.989 0S.686 6.855.688 15.308a15.304 15.304 0 0 0 10.649 14.576.662.662 0 0 0 .529-.065.637.637 0 0 0 .283-.356l3.865-12.25a1.912 1.912 0 1 0-.84-3.635l-5.106-5.107a.637.637 0 0 0-.902.902l5.103 5.109a1.876 1.876 0 0 0 .536 2.309l-3.683 11.673C3.844 25.783.118 17.71 2.799 10.432S13.553-.572 20.831 2.109c7.278 2.681 11.004 10.754 8.323 18.032a14.042 14.042 0 0 1-7.462 7.973l-.398-1.874a.637.637 0 0 0-1.049-.344l-3.837 3.426a.637.637 0 0 0 .231 1.084l4.899 1.564a.638.638 0 0 0 .819-.74l-.391-1.839a15.255 15.255 0 0 0 9.329-14.089zm-15.305-.637a.638.638 0 1 1 0 1.277.638.638 0 0 1 0-1.277zm2.101 14.864 2.184-1.948.603 2.84-2.787-.892z" style="fill:var(--color2, #2e2f42)"/><path fill="#4d5ae5" d="M15.354 3.185V4.46a.638.638 0 1 0 1.276 0V3.185a.638.638 0 0 0-1.276 0zM3.876 14.664a.638.638 0 0 0 0 1.276h1.275a.638.638 0 1 0 0-1.276H3.876zM28.108 15.939a.638.638 0 1 0 0-1.276h-1.275a.638.638 0 0 0 0 1.276h1.275z" style="fill:var(--color1, #4d5ae5)"/></symbol><symbol id="icon-astronaut-1" viewBox="0 0 32 32"><path fill="#4d5ae5" d="M31.974 4.524a.534.534 0 0 0-.43-.363l-1.91-.278-.855-1.731c-.179-.365-.777-.365-.956 0l-.855 1.731-1.91.278a.535.535 0 0 0-.296.91l1.383 1.348-.326 1.903c-.034.2.048.402.212.522a.53.53 0 0 0 .562.04l1.709-.899 1.709.899a.536.536 0 0 0 .775-.563l-.326-1.903 1.383-1.348a.536.536 0 0 0 .135-.547zm-2.463 1.327a.534.534 0 0 0-.153.472l.191 1.114-1-.526a.533.533 0 0 0-.498 0l-1.001.526.191-1.114a.534.534 0 0 0-.153-.472l-.81-.789 1.119-.163a.532.532 0 0 0 .402-.292l.5-1.013.5 1.013a.535.535 0 0 0 .402.292l1.119.163-.809.789zM26.134 20.522h-1.067v1.067h1.067v-1.067zM26.134 22.656h-1.067v1.067h1.067v-1.067zM27.2 21.589h-1.067v1.067H27.2v-1.067zM25.067 21.589H24v1.067h1.067v-1.067zM22.4 26.389h-1.067v1.067H22.4v-1.067zM22.4 28.522h-1.067v1.067H22.4v-1.067zM23.467 27.456H22.4v1.067h1.067v-1.067zM21.333 27.456h-1.067v1.067h1.067v-1.067zM16 24.256h-1.067v1.067H16v-1.067zM16 26.389h-1.067v1.067H16v-1.067zM17.067 25.322H16v1.067h1.067v-1.067zM14.933 25.322h-1.067v1.067h1.067v-1.067zM5.867 6.122H4.8v1.067h1.067V6.122zM5.867 8.255H4.8v1.067h1.067V8.255z" style="fill:var(--color1, #4d5ae5)"/><path fill="#4d5ae5" d="M6.933 7.189H5.866v1.067h1.067V7.189zM4.8 7.189H3.733v1.067H4.8V7.189z" style="fill:var(--color1, #4d5ae5)"/><path fill="#2e2f42" d="M24.715 14.159a1.775 1.775 0 0 0-1.188-.705 1.778 1.778 0 0 0-1.34.352l-1.252.96-1.898 1.417-1.358-.541c2.421-1.086 4.114-3.508 4.114-6.32 0-3.823-3.123-6.933-6.961-6.933s-6.961 3.11-6.961 6.933a6.86 6.86 0 0 0 1.12 3.758l-2.764-.024h-.005c-.009 0-.015.004-.023.005a.515.515 0 0 0-.155.031l-.038.013c-.006.003-.013.003-.019.006l-3.233 1.596-.001.001-1.893.911a.397.397 0 0 0-.063.035 1.779 1.779 0 0 0-.598 2.295c.22.429.595.745 1.056.889a1.776 1.776 0 0 0 1.378-.128l1.388-.738 2.264-1.169 1.357-.008L2.2 22.211l-.002.001-1.339 1.333c-.316.315-.49.732-.49 1.178s.174.863.49 1.179c.325.323.752.485 1.179.485s.854-.162 1.18-.485l1.314-1.309 1.741-1.3.901.897-1.762 1.754-.002.001-1.339 1.333c-.316.315-.49.732-.49 1.178s.174.863.49 1.179c.325.323.753.485 1.18.485s.855-.162 1.18-.485l3.482-3.467.001-.002 1.01-1-.004-.004c.006-.006.015-.009.022-.015l5.166-5.658 3.471.494a.52.52 0 0 0 .262-.033c.018-.006.033-.015.05-.023.019-.01.039-.015.058-.027l3.213-2.133c.012-.008.018-.021.029-.029.013-.01.029-.014.041-.026l1.271-1.191c.662-.62.753-1.635.212-2.362zM2.13 17.77a.714.714 0 0 1-.558.052.717.717 0 0 1-.213-1.26l1.314-.632.449 1.313-.992.527zm3.498-1.828-1.548.8-.439-1.283 2.027-1.001-.04 1.484zm15.099-6.62a5.79 5.79 0 0 1-.599 2.559l-4.181-1.899a1.863 1.863 0 0 0-.788-1.388l1.464-4.86c2.378.756 4.105 2.974 4.105 5.588zm-11.789 0c0-3.235 2.644-5.867 5.894-5.867.253 0 .5.021.745.052l-1.432 4.754c-.019-.001-.037-.006-.057-.006-1.033 0-1.873.837-1.873 1.867s.84 1.867 1.873 1.867c.694 0 1.294-.383 1.618-.945l3.862 1.755a5.894 5.894 0 0 1-4.737 2.39c-3.25 0-5.894-2.632-5.894-5.867zm5.956.8c0 .441-.362.8-.806.8s-.806-.359-.806-.8c0-.441.362-.8.806-.8s.806.359.806.8zM2.465 25.146a.608.608 0 0 1-.854.001.592.592 0 0 1 0-.844l.962-.958.851.848-.959.955zm3.214 3.734a.608.608 0 0 1-.855.001.592.592 0 0 1 0-.844l.963-.959.852.848-.96.955zm3.481-3.469-.002.001-1.765 1.76-.852-.848 1.763-1.755.002-.001c.04-.04.065-.088.09-.135.007-.014.02-.026.026-.04.017-.041.019-.085.026-.129.003-.025.014-.047.014-.073 0-.036-.013-.07-.02-.106-.006-.032-.006-.065-.019-.095a.55.55 0 0 0-.091-.138c-.01-.012-.014-.027-.025-.038h-.001l-.001-.002-1.607-1.6c-.017-.017-.039-.024-.058-.038a.507.507 0 0 0-.087-.058.515.515 0 0 0-.093-.033.507.507 0 0 0-.103-.02.5.5 0 0 0-.095.005.53.53 0 0 0-.104.02.477.477 0 0 0-.094.045c-.02.011-.042.015-.061.029L4.23 23.486l-.901-.897 2.399-2.386 4.361 4.289-.928.919zm6.819-7.017c-.015-.002-.03.004-.045.003a.556.556 0 0 0-.3.075.492.492 0 0 0-.083.061c-.013.011-.028.017-.04.029l-4.698 5.146-4.328-4.257 2.833-2.818a.534.534 0 0 0-.379-.911v-.001l-2.219.013.028-1.607 3.104.027a6.947 6.947 0 0 0 4.981 2.101c.437 0 .864-.045 1.279-.123.04.032.079.065.13.085l2.41.96.152.758.178.885-3.003-.427zm4.041.178-.313-1.558 1.446-1.08.947 1.257-2.08 1.381zm3.754-2.831-.838.785-.931-1.236.831-.637a.735.735 0 0 1 .543-.143.718.718 0 0 1 .48.284.713.713 0 0 1-.085.947z" style="fill:var(--color2, #2e2f42)"/><path fill="#2e2f42" d="m13.602 18.544-2.143-2.133a.534.534 0 0 0-.753 0l-2.142 2.133a.537.537 0 0 0 0 .756l2.142 2.133a.536.536 0 0 0 .753 0l2.143-2.133a.535.535 0 0 0 0-.756zm-2.519 1.759-1.387-1.381 1.387-1.381 1.387 1.381-1.387 1.381zM17.164 5.071l-.258 1.036c.071.018 1.738.452 1.738 2.149h1.067c0-2.017-1.666-2.965-2.547-3.185zM19.711 9.322h-1.067v1.067h1.067V9.322z" style="fill:var(--color2, #2e2f42)"/></symbol><symbol id="icon-antenna-1" viewBox="0 0 32 32"><path fill="#2e2f42" d="m30.773 22.098-8.443-8.505.937-4.615c.242.094.499.144.758.146h.006a2.159 2.159 0 1 0-2.008-1.435l-4.96.605L8.972.161a.534.534 0 0 0-.377-.16.532.532 0 0 0-.373.155L6.709 1.66a.534.534 0 0 0 0 .754l.814.826a14.943 14.943 0 0 0 2.519 17.663.513.513 0 0 0 .146.098c-.034.18-.051.364-.052.547v6.187h-6.4a2.67 2.67 0 0 0-2.667 2.667v1.067c0 .295.239.533.533.533h24.533a.533.533 0 0 0 .533-.533v-1.067a2.67 2.67 0 0 0-2.667-2.667h-6.4v-2.742a15.09 15.09 0 0 0 3.049.32 14.854 14.854 0 0 0 7.04-1.783l.818.823a.534.534 0 0 0 .377.16.532.532 0 0 0 .373-.155l1.513-1.504a.534.534 0 0 0 0-.754zM23.28 6.233a1.067 1.067 0 1 1 .753 1.822h-.003a1.067 1.067 0 0 1-.747-1.823h-.002zm-1.256 3.505-.598 2.946-1.175-1.182 1.774-1.763zm-.605-.902-1.92 1.909-1.485-1.493 3.405-.415zM24.004 28.8a1.6 1.6 0 0 1 1.6 1.6v.533H2.137V30.4a1.6 1.6 0 0 1 1.6-1.6h20.267zm-7.467-2.133v1.067h-5.333v-1.067h5.333zM11.204 25.6v-4.053c0-1.294 1.196-2.347 2.667-2.347s2.667 1.053 2.667 2.347V25.6h-5.333zm6.4-1.696v-2.357c0-1.882-1.675-3.413-3.733-3.413a3.8 3.8 0 0 0-3.281 1.786A13.87 13.87 0 0 1 8.311 4.033l18.602 18.708a13.818 13.818 0 0 1-9.309 1.163zm11.289-.684L7.836 2.039l.755-.752 7.935 7.98c.004 0 .006.007.01.01l13.115 13.191-.757.752z" style="fill:var(--color2, #2e2f42)"/><path fill="#4d5ae5" d="M13.876 20.267h-.005a1.6 1.6 0 1 0-.004 3.2h.005a1.6 1.6 0 1 0 .004-3.2zm.373 1.978a.534.534 0 0 1-.752-.756.534.534 0 0 1 .373-.155.534.534 0 0 1 .374.911h.005z" style="fill:var(--color1, #4d5ae5)"/></symbol><symbol id="icon-Ellipse-3" viewBox="0 0 32 32"><path fill="#4d5ae5" d="M32 16c0 4.418-1.791 8.418-4.686 11.314S20.419 32 16 32c-4.418 0-8.418-1.791-11.314-4.686S0 20.419 0 16c0-4.418 1.791-8.418 4.686-11.314S11.581 0 16 0c4.418 0 8.418 1.791 11.314 4.686S32 11.581 32 16z" style="fill:var(--color1, #4d5ae5)"/><path fill="#f4f4fd" d="M25.595 25.6v-.001h.005v-7.042c0-3.445-.742-6.098-4.769-6.098-1.936 0-3.235 1.062-3.766 2.07h-.056v-1.748h-3.818v12.818h3.976v-6.347c0-1.671.317-3.287 2.386-3.287 2.039 0 2.07 1.907 2.07 3.394V25.6h3.972zM6.717 12.782h3.981V25.6H6.717V12.782zM8.706 6.4C7.433 6.4 6.4 7.433 6.4 8.706s1.033 2.327 2.306 2.327c1.273 0 2.306-1.054 2.306-2.327S9.978 6.4 8.706 6.4z" style="fill:var(--color2, #f4f4fd)"/></symbol><symbol id="icon-Ellipse-2" viewBox="0 0 32 32"><path fill="#4d5ae5" d="M32 16c0 4.418-1.791 8.418-4.686 11.314S20.419 32 16 32c-4.418 0-8.418-1.791-11.314-4.686S0 20.419 0 16c0-4.418 1.791-8.418 4.686-11.314S11.581 0 16 0c4.418 0 8.418 1.791 11.314 4.686S32 11.581 32 16z" style="fill:var(--color1, #4d5ae5)"/><path fill="#f4f4fd" d="M19.198 9.588h1.753V6.535a22.54 22.54 0 0 0-2.554-.135c-2.527 0-4.258 1.59-4.258 4.511V13.6H11.35v3.413h2.789V25.6h3.419v-8.586h2.676l.425-3.413h-3.102V11.25c.001-.986.266-1.662 1.641-1.662z" style="fill:var(--color2, #f4f4fd)"/></symbol><symbol id="icon-Ellipse-1" viewBox="0 0 32 32"><path fill="#4d5ae5" d="M32 16c0 4.418-1.791 8.418-4.686 11.314S20.419 32 16 32c-4.418 0-8.418-1.791-11.314-4.686S0 20.419 0 16c0-4.418 1.791-8.418 4.686-11.314S11.581 0 16 0c4.418 0 8.418 1.791 11.314 4.686S32 11.581 32 16z" style="fill:var(--color1, #4d5ae5)"/><path fill="#f4f4fd" d="M25.6 10.047a8.223 8.223 0 0 1-2.268.622 3.915 3.915 0 0 0 1.732-2.176 7.866 7.866 0 0 1-2.496.953 3.936 3.936 0 0 0-6.809 2.691c0 .312.026.612.091.898a11.143 11.143 0 0 1-8.113-4.117 3.96 3.96 0 0 0-.539 1.99c0 1.363.702 2.572 1.748 3.271a3.888 3.888 0 0 1-1.778-.485v.043a3.954 3.954 0 0 0 3.154 3.868c-.32.088-.67.13-1.032.13-.252 0-.506-.014-.745-.067.51 1.559 1.957 2.705 3.678 2.742a7.907 7.907 0 0 1-4.88 1.679c-.323 0-.632-.014-.942-.054a11.085 11.085 0 0 0 6.038 1.766c7.243 0 11.203-6 11.203-11.201 0-.174-.006-.342-.014-.509a7.845 7.845 0 0 0 1.973-2.044z" style="fill:var(--color2, #f4f4fd)"/></symbol><symbol id="icon-Ellipse" viewBox="0 0 32 32"><path fill="#4d5ae5" d="M32 16c0 4.418-1.791 8.418-4.686 11.314S20.419 32 16 32c-4.418 0-8.418-1.791-11.314-4.686S0 20.419 0 16c0-4.418 1.791-8.418 4.686-11.314S11.581 0 16 0c4.418 0 8.418 1.791 11.314 4.686S32 11.581 32 16z" style="fill:var(--color1, #4d5ae5)"/><path fill="#f4f4fd" d="M25.581 12.045c-.045-1.02-.21-1.722-.446-2.329a4.693 4.693 0 0 0-1.11-1.703 4.714 4.714 0 0 0-1.699-1.106c-.611-.236-1.309-.401-2.329-.446-1.028-.049-1.354-.06-3.961-.06s-2.933.011-3.957.056c-1.02.045-1.722.21-2.329.446a4.693 4.693 0 0 0-1.703 1.11 4.723 4.723 0 0 0-1.106 1.699c-.236.611-.401 1.309-.446 2.329-.049 1.028-.06 1.354-.06 3.961s.011 2.933.056 3.957c.045 1.02.21 1.722.446 2.329a4.745 4.745 0 0 0 1.11 1.703c.48.488 1.061.866 1.699 1.106.611.236 1.309.401 2.329.446 1.024.045 1.35.056 3.957.056s2.933-.011 3.957-.056c1.02-.045 1.722-.21 2.329-.446a4.912 4.912 0 0 0 2.809-2.809c.236-.611.401-1.309.446-2.329.045-1.024.056-1.35.056-3.957s-.004-2.933-.049-3.957zm-1.729 7.839c-.041.938-.199 1.444-.33 1.782a3.187 3.187 0 0 1-1.823 1.823c-.338.131-.848.289-1.782.33-1.013.045-1.316.056-3.878.056s-2.869-.011-3.878-.056c-.938-.041-1.444-.199-1.782-.33a2.972 2.972 0 0 1-1.103-.716 2.964 2.964 0 0 1-.716-1.103c-.131-.338-.289-.848-.33-1.782-.045-1.013-.056-1.317-.056-3.878s.011-2.869.056-3.878c.041-.938.199-1.444.33-1.782.154-.416.398-.795.72-1.103a2.964 2.964 0 0 1 1.103-.716c.338-.131.848-.289 1.782-.33 1.013-.045 1.317-.056 3.878-.056 2.566 0 2.869.011 3.878.056.938.041 1.444.199 1.782.33a2.96 2.96 0 0 1 1.103.716c.319.311.563.686.716 1.103.131.338.289.848.33 1.782.045 1.013.056 1.316.056 3.878s-.011 2.862-.056 3.875z" style="fill:var(--color2, #f4f4fd)"/><path fill="#f4f4fd" d="M16.036 11.07a4.933 4.933 0 0 0 0 9.864 4.933 4.933 0 0 0 0-9.864zm0 8.131a3.2 3.2 0 1 1 .002-6.4 3.2 3.2 0 0 1-.002 6.4zM22.314 10.875a1.151 1.151 0 1 1-2.303 0 1.151 1.151 0 0 1 2.303 0z" style="fill:var(--color2, #f4f4fd)"/></symbol><symbol id="icon-Client-6" viewBox="0 0 28 32"><path fill="#8e8f99" d="M14.309 8.602a.4.4 0 0 1-.082-.27V7.94c0-.12.027-.211.082-.274s.148-.093.281-.093c.125 0 .213.027.265.08a.327.327 0 0 1 .079.234v.092h-.223v-.093a.395.395 0 0 0-.007-.091.083.083 0 0 0-.032-.054.127.127 0 0 0-.081-.021.138.138 0 0 0-.085.022.11.11 0 0 0-.037.06.523.523 0 0 0-.009.097v.475a.23.23 0 0 0 .029.133c.011.014.027.025.044.032s.038.01.058.008a.127.127 0 0 0 .079-.021.096.096 0 0 0 .033-.058.608.608 0 0 0 .007-.095v-.096h.223v.088a.36.36 0 0 1-.077.246c-.051.058-.138.087-.267.087s-.225-.031-.28-.096zM15.237 8.606c-.056-.061-.084-.15-.084-.267v-.412c0-.116.028-.204.084-.264s.15-.09.283-.089c.131 0 .225.03.281.089s.085.148.085.264v.412c0 .116-.029.206-.086.267s-.15.092-.28.092-.226-.031-.283-.092zm.387-.098a.237.237 0 0 0 .027-.122v-.504a.231.231 0 0 0-.026-.12c-.011-.014-.027-.026-.045-.033s-.039-.009-.059-.007c-.02-.002-.04 0-.059.007s-.034.018-.046.033a.228.228 0 0 0-.027.12v.507a.219.219 0 0 0 .027.122c.013.013.029.023.047.03s.038.011.057.011a.156.156 0 0 0 .104-.041v-.002zM16.154 7.586h.24l.18.76.185-.76h.234l.024 1.097h-.173l-.018-.762-.178.762h-.138l-.185-.765-.017.765h-.174l.022-1.097zM17.286 7.586h.374c.215 0 .323.104.323.311 0 .199-.113.298-.34.298h-.127v.488h-.231l.001-1.097zm.319.469a.171.171 0 0 0 .127-.034.18.18 0 0 0 .033-.124.341.341 0 0 0-.011-.1c-.003-.011-.009-.021-.017-.03s-.018-.016-.029-.022a.254.254 0 0 0-.103-.018h-.09v.328h.09zM18.316 7.586h.248l.254 1.097h-.215l-.05-.253h-.221l-.052.253h-.218l.254-1.097zm.212.717-.086-.46-.086.46h.173zM19.023 7.586h.162l.309.626v-.626h.192v1.097h-.154l-.311-.653v.653h-.198V7.586zM20.135 8.265l-.257-.677h.217l.157.435.147-.435h.212l-.254.677v.418h-.222v-.418zM14.665 9.163v.057h-.188v.446h-.079V9.22h-.189v-.057h.457zM15.256 9.666h-.061c-.006 0-.012-.001-.017-.005s-.008-.007-.01-.012l-.055-.12h-.261l-.055.12c-.002.005-.004.01-.008.014s-.011.005-.017.005h-.061l.231-.503h.08l.233.501zm-.382-.187h.218L15 9.274c-.007-.015-.012-.031-.017-.047a.426.426 0 0 1-.009.027l-.008.021-.091.204zM15.654 9.616a.309.309 0 0 0 .08-.006l.033-.009.031-.012v-.113h-.092l-.007-.001-.006-.003-.004-.004-.001-.005v-.039h.179v.193a.402.402 0 0 1-.097.041.75.75 0 0 1-.125.013.348.348 0 0 1-.116-.019c-.035-.012-.066-.03-.092-.053s-.046-.05-.06-.08c-.015-.033-.022-.069-.021-.104s.007-.072.021-.105c.013-.03.034-.057.06-.08s.058-.04.092-.052a.397.397 0 0 1 .188-.015.339.339 0 0 1 .101.033.394.394 0 0 1 .04.026l-.022.031c-.002.003-.004.005-.008.007l-.01.003a.033.033 0 0 1-.014-.004l-.023-.012-.031-.014a.288.288 0 0 0-.101-.015.267.267 0 0 0-.089.014c-.026.009-.049.022-.068.04s-.034.039-.043.063a.232.232 0 0 0 0 .168c.01.024.026.045.046.063a.206.206 0 0 0 .067.04c.029.009.06.012.091.01zM16.39 9.608h.252v.057h-.329v-.503h.079l-.002.446zM16.904 9.666h-.079v-.503h.079v.503zM17.198 9.165a.027.027 0 0 1 .012.009l.337.379V9.16h.069v.505h-.04c-.006 0-.012-.001-.017-.003s-.009-.006-.012-.01l-.337-.379v.392h-.066v-.503h.041l.013.002zM18.197 9.163v.055h-.28v.166h.227v.053h-.227v.172h.28v.055h-.361v-.502h.361zM9.925 6.055l3.505.859v3.01l-3.505-.858v-3.01zM9.7 5.799v3.413l3.955.969V6.769L9.7 5.799z" style="fill:var(--color3, #8e8f99)"/><path fill="#8e8f99" d="m11.819 11.765-3.955-.97V7.383l3.955.97v3.413z" style="fill:var(--color3, #8e8f99)"/><path fill="#8e8f99" d="m9.765 6.017 3.46.848-1.471 1.27-3.46-.848 1.472-1.27zM9.7 5.799 7.864 7.383l3.955.97 1.835-1.584-3.955-.97zM12.042 11.573l1.613-1.392-1.613-.396v1.787z" style="fill:var(--color3, #8e8f99)"/><path fill="#404bbf" d="M14.309 23.247a.4.4 0 0 1-.082-.27v-.392c0-.12.027-.211.082-.274s.148-.094.281-.093c.125 0 .213.027.265.08a.327.327 0 0 1 .079.234v.092h-.223v-.093a.4.4 0 0 0-.007-.091.083.083 0 0 0-.032-.054.127.127 0 0 0-.081-.021.138.138 0 0 0-.085.022.11.11 0 0 0-.037.06.523.523 0 0 0-.009.097v.475a.23.23 0 0 0 .029.133c.011.014.027.025.044.032s.038.01.058.008a.122.122 0 0 0 .079-.022.096.096 0 0 0 .033-.058.599.599 0 0 0 .007-.095v-.096h.223v.088a.36.36 0 0 1-.077.246c-.051.058-.138.087-.267.087s-.225-.031-.28-.096zM15.237 23.251c-.056-.061-.084-.15-.084-.267v-.412c0-.116.028-.204.084-.264s.15-.09.283-.089c.131 0 .225.03.281.089s.085.148.085.264v.412c0 .116-.029.206-.086.267s-.15.092-.28.092-.226-.031-.283-.092zm.387-.099a.237.237 0 0 0 .027-.122v-.504a.225.225 0 0 0-.026-.119c-.011-.014-.027-.026-.045-.033s-.039-.009-.059-.007c-.02-.002-.04 0-.059.007s-.034.018-.046.033a.226.226 0 0 0-.027.119v.507a.219.219 0 0 0 .027.122c.013.013.029.023.047.03s.038.011.057.011a.156.156 0 0 0 .104-.041v-.002zM16.154 22.23h.24l.18.76.185-.76h.234l.024 1.097h-.173l-.018-.762-.178.762h-.138l-.185-.765-.017.765h-.174l.022-1.097zM17.286 22.23h.374c.215 0 .323.104.323.311 0 .199-.113.298-.34.298h-.127v.487h-.231l.001-1.097zm.319.469a.171.171 0 0 0 .127-.034.18.18 0 0 0 .033-.124.341.341 0 0 0-.011-.1c-.003-.011-.009-.021-.017-.03s-.018-.016-.029-.022a.238.238 0 0 0-.103-.017h-.09v.328h.09zM18.316 22.23h.248l.254 1.097h-.215l-.05-.253h-.221l-.052.253h-.218l.254-1.097zm.212.717-.086-.46-.086.46h.173zM19.023 22.23h.162l.309.626v-.626h.192v1.097h-.154l-.311-.653v.653h-.198V22.23zM20.135 22.909l-.257-.677h.217l.157.435.147-.435h.212l-.254.677v.418h-.222v-.418zM14.665 23.807v.057h-.188v.446h-.079v-.446h-.189v-.057h.457zM15.256 24.31h-.061c-.006 0-.012-.001-.017-.005s-.008-.007-.01-.012l-.055-.119h-.261l-.055.119c-.002.005-.004.01-.008.014s-.011.005-.017.005h-.061l.231-.503h.08l.233.501zm-.382-.187h.218L15 23.918a.443.443 0 0 1-.017-.047.426.426 0 0 1-.009.027l-.008.021-.091.204zM15.654 24.26a.309.309 0 0 0 .08-.006l.033-.009.031-.012v-.113h-.092l-.007-.001-.006-.003-.004-.004-.001-.005v-.039h.179v.193a.402.402 0 0 1-.097.041.75.75 0 0 1-.125.013.348.348 0 0 1-.116-.019c-.035-.012-.066-.03-.092-.052a.234.234 0 0 1-.081-.184.231.231 0 0 1 .081-.185.278.278 0 0 1 .092-.052.397.397 0 0 1 .188-.015.339.339 0 0 1 .101.033.394.394 0 0 1 .04.026l-.022.031c-.002.003-.004.005-.008.007l-.01.003a.033.033 0 0 1-.014-.004l-.023-.012-.031-.014a.325.325 0 0 0-.042-.011.381.381 0 0 0-.059-.004.267.267 0 0 0-.089.014c-.026.009-.049.022-.068.04s-.034.039-.043.063a.232.232 0 0 0 0 .168c.01.024.026.045.046.063a.206.206 0 0 0 .067.04c.029.009.06.012.091.01zM16.39 24.252h.252v.057h-.329v-.503h.079l-.002.446zM16.904 24.31h-.079v-.503h.079v.503zM17.198 23.809a.027.027 0 0 1 .012.009l.337.379v-.392h.069v.505h-.04c-.006 0-.012-.001-.017-.003s-.009-.006-.012-.01l-.337-.379v.391h-.066v-.503h.041l.013.002zM18.197 23.807v.055h-.28v.166h.227v.053h-.227v.172h.28v.055h-.361v-.502h.361zM9.925 20.7l3.505.859v3.009l-3.505-.858V20.7zm-.225-.257v3.413l3.955.969v-3.412l-3.955-.97z" style="fill:var(--color4, #404bbf)"/><path fill="#404bbf" d="m11.819 26.409-3.955-.97v-3.412l3.955.97v3.413z" style="fill:var(--color4, #404bbf)"/><path fill="#404bbf" d="m9.765 20.661 3.46.848-1.471 1.27-3.46-.849 1.472-1.269zm-.065-.218-1.836 1.584 3.955.97 1.835-1.584-3.955-.97zM12.042 26.217l1.613-1.392-1.613-.396v1.787z" style="fill:var(--color4, #404bbf)"/></symbol><symbol id="icon-Client-5" viewBox="0 0 28 32"><path fill="#8e8f99" d="M10.684 10.898a.192.192 0 0 1 .05.131c.002.031-.004.062-.018.091s-.034.054-.06.075a.364.364 0 0 1-.226.06h-.397v-.832h.389a.356.356 0 0 1 .215.055c.025.019.045.043.058.07s.019.056.017.086a.182.182 0 0 1-.045.127.216.216 0 0 1-.118.065c.053.009.1.034.134.071zm-.466-.125h.166a.165.165 0 0 0 .106-.028c.012-.01.022-.023.028-.037s.009-.029.007-.044a.095.095 0 0 0-.035-.081.172.172 0 0 0-.109-.028h-.163v.218zm.288.318c.013-.01.024-.023.031-.038s.01-.031.009-.046c.001-.016-.002-.032-.009-.047s-.018-.028-.031-.038a.183.183 0 0 0-.113-.03h-.174v.229h.176a.185.185 0 0 0 .111-.029zM11.478 11.255l-.216-.325h-.081v.325h-.186v-.832h.352a.37.37 0 0 1 .245.071c.049.045.079.105.084.168s-.016.126-.057.176a.295.295 0 0 1-.168.085l.23.332h-.202zm-.298-.438h.152c.106 0 .158-.042.158-.126a.116.116 0 0 0-.038-.093.179.179 0 0 0-.12-.034h-.154l.002.253zM12.494 11.088h-.37l-.065.167h-.195l.34-.822h.211l.339.822h-.195l-.064-.167zm-.05-.126-.135-.351-.135.351h.271zM13.766 11.255h-.185l-.414-.565v.565h-.184v-.832h.184l.414.569v-.569h.185v.832zM14.819 11.056a.38.38 0 0 1-.167.147.573.573 0 0 1-.259.052h-.329v-.832h.329a.6.6 0 0 1 .259.051.376.376 0 0 1 .167.145.445.445 0 0 1 0 .436zm-.211-.019c.053-.055.082-.126.082-.198s-.029-.143-.082-.198a.35.35 0 0 0-.231-.071h-.128v.538h.128a.344.344 0 0 0 .231-.071zM12.609 5.799s2.382.81 2.331 1.981v1.982s-2.38-.81-2.331-1.982l-.001-1.981zM17.063 9.298c.45-.279.97-.451 1.513-.502v-.62a3.053 3.053 0 0 0-1.513 1.122z" style="fill:var(--color3, #8e8f99)"/><path fill="#8e8f99" d="M16.793 9.484c.368-.667 1.006-1.182 1.784-1.439V6.258s-3.392 1.153-3.321 2.822v2.821s.151-.052.389-.148c0-.09 0-.181.011-.273.07-.774.479-1.492 1.137-1.995z" style="fill:var(--color3, #8e8f99)"/><path fill="#8e8f99" d="M16.47 10.532c.018-.196.058-.389.119-.578a2.584 2.584 0 0 0-.718 1.704c.193-.083.417-.187.652-.31a2.642 2.642 0 0 1-.053-.817zM16.605 10.543a2.52 2.52 0 0 0 .042.74c.927-.499 1.968-1.271 1.928-2.203v-.081a3.192 3.192 0 0 0-1.763.742 2.565 2.565 0 0 0-.207.803z" style="fill:var(--color3, #8e8f99)"/><path fill="#404bbf" d="M10.684 25.542a.192.192 0 0 1 .05.131c.002.031-.004.062-.018.091s-.034.054-.06.075a.357.357 0 0 1-.226.06h-.397v-.831h.389a.356.356 0 0 1 .215.055c.025.019.045.043.058.07s.019.056.017.086a.182.182 0 0 1-.045.127.216.216 0 0 1-.118.065c.053.009.1.034.134.071zm-.466-.125h.166a.165.165 0 0 0 .106-.028c.012-.01.022-.023.028-.037s.009-.029.007-.044a.095.095 0 0 0-.035-.081.172.172 0 0 0-.109-.028h-.163v.218zm.288.318c.013-.01.024-.023.031-.038s.01-.03.009-.046c.001-.016-.002-.032-.009-.047s-.018-.028-.031-.038a.183.183 0 0 0-.113-.03h-.174v.229h.176a.185.185 0 0 0 .111-.029zM11.478 25.9l-.216-.325h-.081v.325h-.186v-.831h.352a.37.37 0 0 1 .245.071c.049.045.079.105.084.168s-.016.126-.057.176a.288.288 0 0 1-.168.084l.23.332h-.202zm-.298-.439h.152c.106 0 .158-.042.158-.126a.116.116 0 0 0-.038-.093.179.179 0 0 0-.12-.034h-.154l.002.253zM12.494 25.732h-.37l-.065.167h-.195l.34-.822h.211l.339.822h-.195l-.064-.167zm-.05-.126-.135-.351-.135.351h.271zM13.766 25.9h-.185l-.414-.565v.565h-.184v-.831h.184l.414.569v-.569h.185v.831zM14.819 25.7a.38.38 0 0 1-.167.147.586.586 0 0 1-.259.052h-.329v-.831h.329a.6.6 0 0 1 .259.051.376.376 0 0 1 .167.145.445.445 0 0 1 0 .436zm-.211-.019c.053-.055.082-.126.082-.198s-.029-.143-.082-.198a.344.344 0 0 0-.231-.071h-.128v.538h.128a.344.344 0 0 0 .231-.071zM12.609 20.443s2.382.809 2.331 1.981v1.982s-2.38-.81-2.331-1.982l-.001-1.981zM17.063 23.942c.45-.279.97-.451 1.513-.502v-.62a3.053 3.053 0 0 0-1.513 1.122z" style="fill:var(--color4, #404bbf)"/><path fill="#404bbf" d="M16.793 24.129c.368-.668 1.006-1.183 1.784-1.439v-1.787s-3.392 1.153-3.321 2.822v2.821s.151-.052.389-.148c0-.09 0-.181.011-.273.07-.774.479-1.492 1.137-1.995z" style="fill:var(--color4, #404bbf)"/><path fill="#404bbf" d="M16.47 25.177c.018-.196.058-.389.119-.578a2.584 2.584 0 0 0-.718 1.704c.193-.083.417-.187.652-.31a2.642 2.642 0 0 1-.053-.817zM16.605 25.187a2.52 2.52 0 0 0 .042.74c.927-.499 1.968-1.271 1.928-2.203v-.081a3.192 3.192 0 0 0-1.763.742 2.565 2.565 0 0 0-.207.803z" style="fill:var(--color4, #404bbf)"/></symbol><symbol id="icon-Client-4" viewBox="0 0 28 32"><path fill="#8e8f99" d="M10.316 7.799c-.323 0-.586.236-.586.528 0 .292.262.528.586.528.323 0 .586-.236.586-.528 0-.292-.262-.528-.586-.528zM14.639 7.63c-.001-.405-.18-.793-.497-1.08s-.748-.448-1.198-.449c-.449.001-.88.162-1.198.449s-.497.675-.498 1.08v2.234s3.39-.34 3.391-2.233zM8.542 10.597c.001.282.125.552.346.751s.521.312.833.313c.313-.001.612-.113.833-.312s.346-.469.347-.751V9.044s-2.359.237-2.359 1.554zm1.18.279c-.061 0-.121-.016-.172-.047s-.09-.074-.114-.125a.256.256 0 0 1 .067-.304.336.336 0 0 1 .336-.06c.056.021.105.057.139.103a.26.26 0 0 1-.038.353.32.32 0 0 1-.218.082v-.001zM11.879 10.375v.578h-.119v-.578h.119zm.231.247v.093h-.263v-.093h.263zm.027-.247v.093h-.291v-.093h.291zm.545.276v.027c0 .044-.006.083-.018.118s-.029.065-.05.089a.229.229 0 0 1-.178.075c-.036 0-.07-.007-.1-.019s-.056-.032-.078-.056c-.022-.025-.039-.054-.051-.089s-.018-.074-.018-.118v-.027c0-.044.006-.084.018-.118s.029-.065.05-.089c.022-.025.048-.043.078-.056s.063-.019.1-.019a.229.229 0 0 1 .229.164.361.361 0 0 1 .018.118zm-.121.027v-.028c0-.031-.003-.058-.008-.081s-.014-.043-.025-.059a.106.106 0 0 0-.094-.048.12.12 0 0 0-.054.012c-.015.008-.028.02-.039.036s-.019.036-.024.059-.008.05-.008.081v.028c0 .03.003.057.008.081s.014.043.025.059a.106.106 0 0 0 .094.048c.02 0 .038-.004.054-.012s.029-.02.039-.036c.011-.016.019-.036.024-.059s.008-.051.008-.081zm.508.124c0-.01-.002-.02-.005-.028s-.008-.016-.017-.023c-.008-.007-.02-.014-.035-.021s-.034-.014-.058-.021c-.026-.008-.051-.018-.075-.029s-.044-.023-.062-.037a.14.14 0 0 1-.057-.116c0-.024.005-.046.016-.066s.025-.037.044-.051c.019-.014.042-.025.068-.033s.055-.011.086-.011c.043 0 .08.008.112.023s.056.036.074.063a.16.16 0 0 1 .027.092h-.118c0-.017-.004-.032-.011-.044s-.017-.023-.032-.031c-.014-.007-.032-.011-.053-.011s-.038.003-.052.01c-.014.006-.024.014-.031.025a.062.062 0 0 0-.003.062c.005.008.012.015.022.022s.022.013.036.019a.554.554 0 0 0 .05.018c.031.01.059.02.083.032s.044.025.06.04.028.032.037.05c.008.019.012.04.012.064 0 .025-.005.048-.015.068s-.024.037-.043.05c-.019.014-.041.024-.066.031a.32.32 0 0 1-.247-.035.165.165 0 0 1-.074-.144h.12c0 .018.003.033.008.046s.013.023.023.03c.01.008.023.013.037.017s.03.005.047.005c.021 0 .038-.003.051-.009s.023-.014.03-.024a.06.06 0 0 0 .01-.035zm.458-.427v.578h-.119v-.578h.119zm.178 0v.093h-.472v-.093h.472zm.456.485v.093h-.308v-.093h.308zm-.269-.485v.578h-.119v-.578h.119zm.229.235v.091h-.268v-.091h.268zm.04-.235v.093h-.308v-.093h.308zm.07 0h.216c.044 0 .082.007.114.02s.057.033.074.059.026.058.026.096a.158.158 0 0 1-.06.135.23.23 0 0 1-.066.035l-.038.02h-.188l-.001-.093h.139c.021 0 .038-.004.052-.011s.024-.018.031-.031a.098.098 0 0 0 .011-.046c0-.019-.004-.035-.01-.048s-.017-.024-.031-.031a.119.119 0 0 0-.053-.011h-.096v.485h-.119v-.578zm.323.578-.132-.258.126-.001.134.253v.006h-.128zm.626-.206h-.147v-.093h.147c.023 0 .041-.004.056-.011s.025-.018.031-.032a.115.115 0 0 0 0-.094.083.083 0 0 0-.031-.036.103.103 0 0 0-.056-.014h-.106v.485h-.119v-.578h.225c.045 0 .084.008.116.025s.057.039.075.067.026.061.026.098c0 .037-.009.07-.026.097s-.042.048-.075.063a.273.273 0 0 1-.116.022zm.687.113v.093h-.308v-.093h.308zm-.269-.485v.578h-.119v-.578h.119zm.229.235v.091h-.268v-.091h.268zm.04-.235v.093h-.307v-.093h.307zm.336 0v.578h-.119v-.578h.119zm.178 0v.093h-.472v-.093h.472zm.456.485v.093h-.308v-.093h.308zm-.269-.485v.578h-.119v-.578h.119zm.229.235v.091h-.268v-.091h.268zm.04-.235v.093h-.307v-.093h.307zm.07 0h.216c.044 0 .082.007.114.02s.057.033.074.059.026.058.026.096a.158.158 0 0 1-.06.135.23.23 0 0 1-.066.035l-.038.02h-.188l-.001-.093h.14c.021 0 .038-.004.052-.011s.024-.018.031-.031a.098.098 0 0 0 .011-.046c0-.019-.003-.035-.01-.048s-.017-.024-.031-.031a.119.119 0 0 0-.053-.011h-.097v.485h-.119v-.578zm.323.578-.132-.258.126-.001.133.253v.006h-.127zm.499-.151c0-.01-.002-.02-.005-.028s-.008-.016-.017-.023c-.008-.007-.02-.014-.035-.021s-.034-.014-.058-.021c-.026-.008-.051-.018-.075-.029s-.044-.023-.062-.037a.14.14 0 0 1-.057-.116c0-.024.005-.046.016-.066s.026-.037.044-.051c.019-.014.042-.025.068-.033s.055-.011.086-.011c.043 0 .08.008.112.023s.056.036.074.063a.16.16 0 0 1 .027.092h-.118c0-.017-.004-.032-.011-.044s-.017-.023-.032-.031c-.014-.007-.032-.011-.053-.011s-.038.003-.052.01c-.014.006-.024.014-.031.025a.062.062 0 0 0-.003.062.077.077 0 0 0 .022.022.554.554 0 0 0 .086.037c.032.01.059.02.083.032s.044.025.06.04.028.032.037.05c.008.019.012.04.012.064 0 .025-.005.048-.015.068s-.024.037-.043.05c-.018.014-.041.024-.066.031a.32.32 0 0 1-.247-.035c-.023-.015-.041-.035-.054-.059s-.02-.052-.02-.085h.12c0 .018.003.033.008.046s.013.023.023.03c.01.008.023.013.037.017s.03.005.047.005c.021 0 .038-.003.051-.009s.023-.014.03-.024a.06.06 0 0 0 .01-.035z" style="fill:var(--color3, #8e8f99)"/><path fill="#404bbf" d="M10.316 22.443c-.323 0-.586.236-.586.528 0 .292.262.528.586.528.323 0 .586-.236.586-.528 0-.292-.262-.528-.586-.528zM14.639 22.274c-.001-.405-.18-.793-.497-1.08s-.748-.448-1.198-.449c-.449.001-.88.162-1.198.449s-.497.675-.498 1.08v2.234s3.39-.34 3.391-2.233zM8.542 25.241c.001.282.125.552.346.751s.521.312.833.313c.313-.001.612-.113.833-.312s.346-.469.347-.751v-1.554s-2.359.237-2.359 1.554zm1.18.279c-.061 0-.121-.016-.172-.047s-.09-.074-.114-.125a.256.256 0 0 1 .067-.304.336.336 0 0 1 .336-.06c.056.021.105.057.139.102a.258.258 0 0 1-.038.353.32.32 0 0 1-.218.082v-.001zM11.879 25.019v.578h-.119v-.578h.119zm.231.247v.093h-.263v-.093h.263zm.027-.247v.093h-.291v-.093h.291zm.545.276v.027c0 .044-.006.084-.018.118s-.029.065-.05.09a.229.229 0 0 1-.178.075.229.229 0 0 1-.229-.165.361.361 0 0 1-.018-.118v-.027c0-.044.006-.084.018-.118s.029-.065.05-.089c.022-.025.048-.043.078-.056s.063-.02.1-.02a.232.232 0 0 1 .229.165.361.361 0 0 1 .018.118zm-.121.027v-.028c0-.031-.003-.058-.008-.081s-.014-.043-.025-.059a.106.106 0 0 0-.094-.048.12.12 0 0 0-.054.012c-.015.008-.028.02-.039.036s-.019.036-.024.059-.008.05-.008.081v.028c0 .03.003.058.008.081s.014.043.025.059a.106.106 0 0 0 .094.048.12.12 0 0 0 .054-.012c.016-.008.029-.02.039-.036s.019-.036.024-.059a.337.337 0 0 0 .008-.081zm.508.124c0-.01-.002-.02-.005-.028s-.008-.016-.017-.023c-.008-.007-.02-.014-.035-.021s-.034-.014-.058-.021c-.026-.009-.051-.018-.075-.029s-.044-.023-.062-.037a.14.14 0 0 1-.057-.116c0-.024.005-.046.016-.066s.025-.037.044-.051c.019-.014.042-.025.068-.033a.293.293 0 0 1 .198.011.176.176 0 0 1 .074.063.16.16 0 0 1 .027.092h-.118c0-.017-.004-.032-.011-.044s-.017-.023-.032-.031c-.014-.007-.032-.011-.053-.011s-.038.003-.052.009c-.014.006-.024.015-.031.025s-.01.022-.01.035c0 .01.002.019.007.027s.012.015.022.022a.29.29 0 0 0 .086.038c.031.009.059.02.083.032s.044.025.06.04.028.032.037.05.012.04.012.064c0 .025-.005.048-.015.068s-.024.037-.043.05c-.019.014-.041.024-.066.031a.32.32 0 0 1-.247-.035.165.165 0 0 1-.074-.144h.12c0 .018.003.033.008.046s.013.023.023.03c.01.008.023.013.037.017s.03.005.047.005c.021 0 .038-.003.051-.009s.023-.014.03-.024a.06.06 0 0 0 .01-.035zm.458-.427v.578h-.119v-.578h.119zm.178 0v.093h-.472v-.093h.472zm.456.485v.093h-.308v-.093h.308zm-.269-.485v.578h-.119v-.578h.119zm.229.236v.091h-.268v-.091h.268zm.04-.236v.093h-.308v-.093h.308zm.07 0h.216c.044 0 .082.007.114.02s.057.033.074.059.026.058.026.096a.158.158 0 0 1-.06.135.23.23 0 0 1-.066.035l-.038.02h-.188l-.001-.093h.139c.021 0 .038-.004.052-.011s.024-.018.031-.031a.098.098 0 0 0 .011-.046c0-.019-.004-.035-.01-.048s-.017-.024-.031-.031a.119.119 0 0 0-.053-.011h-.096v.485h-.119v-.578zm.323.578-.132-.258.126-.001.134.253v.006h-.128zm.626-.206h-.147v-.093h.147c.023 0 .041-.004.056-.011s.025-.018.031-.032c.007-.013.01-.029.01-.046s-.003-.033-.01-.048-.017-.027-.031-.036-.033-.014-.056-.014h-.106v.485h-.119v-.578h.225c.045 0 .084.008.116.025s.057.038.075.067.026.061.026.098c0 .037-.009.07-.026.097s-.042.048-.075.063a.273.273 0 0 1-.116.022zm.687.113v.093h-.308v-.093h.308zm-.269-.485v.578h-.119v-.578h.119zm.229.236v.091h-.268v-.091h.268zm.04-.236v.093h-.307v-.093h.307zm.336 0v.578h-.119v-.578h.119zm.178 0v.093h-.472v-.093h.472zm.456.485v.093h-.308v-.093h.308zm-.269-.485v.578h-.119v-.578h.119zm.229.236v.091h-.268v-.091h.268zm.04-.236v.093h-.307v-.093h.307zm.07 0h.216c.044 0 .082.007.114.02s.057.033.074.059.026.058.026.096a.158.158 0 0 1-.06.135.23.23 0 0 1-.066.035l-.038.02h-.188l-.001-.093h.14c.021 0 .038-.004.052-.011s.024-.018.031-.031a.098.098 0 0 0 .011-.046c0-.019-.003-.035-.01-.048s-.017-.024-.031-.031a.119.119 0 0 0-.053-.011h-.097v.485h-.119v-.578zm.323.578-.132-.258.126-.001.133.253v.006h-.127zm.499-.151c0-.01-.002-.02-.005-.028s-.008-.016-.017-.023c-.008-.007-.02-.014-.035-.021s-.034-.014-.058-.021c-.026-.009-.051-.018-.075-.029s-.044-.023-.062-.037a.14.14 0 0 1-.057-.116c0-.024.005-.046.016-.066s.026-.037.044-.051c.019-.014.042-.025.068-.033a.293.293 0 0 1 .198.011.176.176 0 0 1 .074.063.16.16 0 0 1 .027.092h-.118c0-.017-.004-.032-.011-.044s-.017-.023-.032-.031c-.014-.007-.032-.011-.053-.011s-.038.003-.052.009c-.014.006-.024.015-.031.025s-.01.022-.01.035c0 .01.002.019.007.027s.012.015.022.022c.01.007.022.013.036.02s.031.012.05.018c.032.009.059.02.083.032s.044.025.06.04.028.032.037.05.012.04.012.064c0 .025-.005.048-.015.068s-.024.037-.043.05c-.018.014-.041.024-.066.031a.32.32 0 0 1-.247-.035c-.023-.015-.041-.035-.054-.059s-.02-.052-.02-.085h.12c0 .018.003.033.008.046s.013.023.023.03c.01.008.023.013.037.017s.03.005.047.005c.021 0 .038-.003.051-.009s.023-.014.03-.024a.06.06 0 0 0 .01-.035z" style="fill:var(--color4, #404bbf)"/></symbol><symbol id="icon-Client-3" viewBox="0 0 28 32"><path fill="#8e8f99" d="m12.042 11.556.006.001a.022.022 0 0 1 .005.003l.03.028a.236.236 0 0 1-.084.053.32.32 0 0 1-.119.019.303.303 0 0 1-.112-.018c-.032-.011-.061-.029-.085-.051s-.043-.049-.055-.078c-.013-.032-.02-.066-.019-.1s.006-.068.021-.1c.013-.029.033-.056.058-.078s.056-.039.09-.051a.375.375 0 0 1 .223-.002c.03.011.057.026.08.045l-.025.03-.006.005c-.002.001-.007.003-.01.002a.02.02 0 0 1-.011-.003l-.013-.008-.019-.01a.186.186 0 0 0-.059-.018.34.34 0 0 0-.045-.003.257.257 0 0 0-.083.013.17.17 0 0 0-.107.098c-.011.025-.016.052-.015.079s.005.055.015.081a.172.172 0 0 0 .104.097.249.249 0 0 0 .123.01.198.198 0 0 0 .099-.041.024.024 0 0 1 .014-.005zM12.907 11.414a.24.24 0 0 1-.02.099c-.012.029-.031.055-.056.077s-.055.039-.088.051a.37.37 0 0 1-.228 0c-.033-.012-.063-.029-.088-.051s-.044-.049-.057-.078a.255.255 0 0 1 0-.199.228.228 0 0 1 .145-.127.37.37 0 0 1 .228 0c.033.012.063.029.088.051s.044.048.056.077a.232.232 0 0 1 .02.1zm-.079 0a.202.202 0 0 0-.014-.08.166.166 0 0 0-.103-.098.259.259 0 0 0-.165 0 .17.17 0 0 0-.103.098.232.232 0 0 0 0 .16.158.158 0 0 0 .103.097.273.273 0 0 0 .165 0 .158.158 0 0 0 .103-.097.202.202 0 0 0 .014-.08zM13.496 11.498l.008.018.009-.018a.162.162 0 0 1 .01-.018l.191-.297c.004-.005.007-.008.011-.009l.016-.002h.057v.483h-.067v-.387l-.192.301c-.002.005-.006.008-.011.011s-.011.004-.016.004h-.011c-.006 0-.012-.001-.016-.004s-.009-.007-.011-.011l-.198-.303v.387h-.065v-.482h.056c.005 0 .011 0 .016.002s.008.005.01.009l.195.297a.095.095 0 0 1 .01.017zM14.216 11.474v.181h-.075v-.483h.167a.325.325 0 0 1 .093.011.19.19 0 0 1 .066.03.12.12 0 0 1 .037.047.15.15 0 0 1-.001.124.14.14 0 0 1-.04.048.193.193 0 0 1-.066.032.304.304 0 0 1-.09.011l-.091-.001zm0-.052h.091c.02 0 .039-.002.058-.007.015-.004.03-.012.042-.021s.02-.02.025-.032a.098.098 0 0 0 .001-.08.103.103 0 0 0-.026-.033.168.168 0 0 0-.101-.026h-.091v.199zM15.222 11.656h-.059c-.006 0-.012-.001-.016-.004s-.008-.007-.01-.011l-.051-.117h-.256l-.053.117c-.002.004-.005.008-.009.011s-.011.005-.017.005h-.059l.225-.483h.078l.228.483zm-.37-.18h.211l-.089-.197c-.007-.015-.012-.03-.017-.045l-.009.025-.008.02-.088.196zM15.546 11.175a.031.031 0 0 1 .011.009l.328.364v-.375h.067v.483h-.037a.034.034 0 0 1-.027-.012l-.327-.364v.376h-.067v-.483h.04l.014.002zM16.503 11.464v.192h-.075v-.192l-.207-.291h.067c.006 0 .012.001.016.004l.01.011.13.188.014.022a.113.113 0 0 1 .009.02l.01-.021a.16.16 0 0 1 .013-.022l.128-.189.01-.01a.028.028 0 0 1 .016-.005h.068l-.207.292zM13.459 10.362l.099.009c.505-.193.932-.509 1.228-.908s.448-.864.436-1.337l-.556-.476c.113.503.06 1.023-.153 1.502s-.578.898-1.054 1.21z" style="fill:var(--color3, #8e8f99)"/><path fill="#8e8f99" d="m13.261 10.339.015.003c.508-.311.896-.745 1.113-1.246s.253-1.046.103-1.565l-.793-.677c.321.557.45 1.18.372 1.797s-.358 1.202-.81 1.688zM15.949 8.684a2.434 2.434 0 0 1-.933 1.335 3.002 3.002 0 0 1-.443.272c.383-.096.736-.267 1.03-.498s.523-.517.667-.835l-.322-.274z" style="fill:var(--color3, #8e8f99)"/><path fill="#8e8f99" d="m15.823 8.607-.458-.391c-.009.446-.157.882-.43 1.262s-.659.691-1.12.901h.002c.103 0 .205-.005.307-.016.431-.15.811-.389 1.108-.696s.499-.671.591-1.06zM13.327 6.569l-.546-.467c-.488.161-.908.445-1.205.813s-.456.805-.458 1.252c.002.494.196.974.553 1.363s.855.665 1.416.785c.501-.521.794-1.166.837-1.839s-.166-1.341-.598-1.906zM17.085 8.535c-.002-.586-.275-1.148-.761-1.562s-1.143-.648-1.829-.65c-.317 0-.631.05-.927.147l3.343 2.857a1.92 1.92 0 0 0 .173-.792z" style="fill:var(--color3, #8e8f99)"/><path fill="#404bbf" d="m12.042 26.2.006.001c.002 0 .004.002.005.003l.03.028a.236.236 0 0 1-.084.053.32.32 0 0 1-.119.019.303.303 0 0 1-.112-.018c-.032-.011-.061-.029-.085-.05s-.043-.049-.055-.078c-.013-.032-.02-.066-.019-.1s.006-.068.021-.1c.013-.029.033-.056.058-.078s.056-.039.09-.051a.375.375 0 0 1 .223-.002c.03.011.057.026.08.045l-.025.03-.006.005c-.002.001-.007.003-.01.002a.02.02 0 0 1-.011-.003l-.013-.008-.019-.01a.186.186 0 0 0-.059-.018.34.34 0 0 0-.045-.003.257.257 0 0 0-.083.013.183.183 0 0 0-.065.038.18.18 0 0 0-.057.139.252.252 0 0 0 .015.081.172.172 0 0 0 .104.097.249.249 0 0 0 .123.01.198.198 0 0 0 .069-.021c.01-.006.02-.012.03-.02a.024.024 0 0 1 .014-.005zM12.907 26.058a.248.248 0 0 1-.02.1c-.012.029-.031.055-.056.077s-.055.039-.088.051a.37.37 0 0 1-.228 0c-.033-.012-.063-.029-.088-.051s-.044-.049-.057-.078a.255.255 0 0 1 0-.199.228.228 0 0 1 .145-.127.37.37 0 0 1 .228 0c.033.012.063.029.088.051s.044.048.056.077a.232.232 0 0 1 .02.1zm-.079 0a.202.202 0 0 0-.014-.08.166.166 0 0 0-.103-.098.273.273 0 0 0-.165 0 .17.17 0 0 0-.103.098.232.232 0 0 0 0 .16.166.166 0 0 0 .04.06.18.18 0 0 0 .063.037.273.273 0 0 0 .165 0 .158.158 0 0 0 .103-.097.202.202 0 0 0 .014-.08zM13.496 26.142l.008.018.009-.018a.162.162 0 0 1 .01-.018l.191-.297c.004-.005.007-.008.011-.009l.016-.002h.057v.483h-.067v-.387l-.192.301c-.002.005-.006.008-.011.011s-.011.004-.016.004h-.011c-.006 0-.012-.001-.016-.004s-.009-.006-.011-.011l-.198-.303v.387h-.065v-.482h.056c.005 0 .011 0 .016.002s.008.005.01.009l.195.297a.15.15 0 0 1 .01.017zM14.216 26.118v.181h-.075v-.482h.167a.325.325 0 0 1 .093.011.19.19 0 0 1 .066.03.12.12 0 0 1 .037.047.15.15 0 0 1-.001.124.14.14 0 0 1-.04.048.193.193 0 0 1-.066.032.304.304 0 0 1-.09.011l-.091-.001zm0-.052h.091c.02 0 .039-.002.058-.007.015-.004.03-.012.042-.021s.02-.02.025-.032a.098.098 0 0 0 .001-.08.103.103 0 0 0-.026-.033.168.168 0 0 0-.101-.026h-.091v.199zM15.222 26.3h-.059c-.006 0-.012-.001-.016-.004s-.008-.007-.01-.011l-.051-.117h-.256l-.053.117c-.002.004-.005.008-.009.011s-.011.005-.017.005h-.059l.225-.483h.078l.228.483zm-.37-.18h.211l-.089-.197c-.007-.015-.012-.03-.017-.045l-.009.025-.008.02-.088.196zM15.546 25.819a.031.031 0 0 1 .011.009l.328.364v-.375h.067v.483h-.037a.034.034 0 0 1-.027-.012l-.327-.364v.376h-.067v-.483h.04l.014.002zM16.503 26.108v.192h-.075v-.192l-.207-.291h.067c.006 0 .012.001.016.004l.01.011.13.188.014.022a.113.113 0 0 1 .009.02l.01-.021a.16.16 0 0 1 .013-.022l.128-.189.01-.01a.028.028 0 0 1 .016-.005h.068l-.207.292zM13.459 25.006l.099.009c.505-.193.932-.509 1.228-.908s.448-.864.436-1.337l-.556-.476c.113.503.06 1.023-.153 1.502s-.578.898-1.054 1.21z" style="fill:var(--color4, #404bbf)"/><path fill="#404bbf" d="m13.261 24.984.015.003c.508-.311.896-.745 1.113-1.246s.253-1.046.103-1.565l-.793-.677c.321.557.45 1.18.372 1.797s-.358 1.202-.81 1.688zM15.949 23.328a2.434 2.434 0 0 1-.933 1.335 3.002 3.002 0 0 1-.443.272c.383-.096.736-.267 1.03-.498s.523-.517.667-.835l-.322-.274z" style="fill:var(--color4, #404bbf)"/><path fill="#404bbf" d="m15.823 23.251-.458-.391c-.009.446-.157.882-.43 1.262s-.659.691-1.12.901h.002c.103 0 .205-.005.307-.016.431-.15.811-.389 1.108-.696s.499-.671.591-1.06zM13.327 21.213l-.546-.467c-.488.161-.908.444-1.205.813s-.456.805-.458 1.252c.002.494.196.974.553 1.362s.855.665 1.416.785c.501-.521.794-1.166.837-1.839s-.166-1.341-.598-1.906zM17.085 23.179c-.002-.586-.275-1.148-.761-1.562s-1.143-.648-1.829-.65c-.317 0-.631.05-.927.147l3.343 2.857a1.92 1.92 0 0 0 .173-.792z" style="fill:var(--color4, #404bbf)"/></symbol><symbol id="icon-Client-2" viewBox="0 0 28 32"><path fill="#8e8f99" d="M13.846 5.686h-.019c-.028-.002-.057-.002-.085-.003h-.062c-.054 0-.109.001-.163.004h-.012a3.842 3.842 0 0 0-1.426.364l-.059.028v3.002l.137-.047a4.673 4.673 0 0 1 1.479-.259v.394c-.049 0-.097.002-.144.004h-.011a4.394 4.394 0 0 0-1.851.522v-3.85c.33-.192.685-.337 1.055-.429.325-.084.659-.127.995-.128h.058c.069.002.137.005.2.01.167.012.333.038.496.079v.388a3.007 3.007 0 0 0-.48-.072l-.01-.001c-.034-.003-.067-.006-.098-.006zm.683.397a4.244 4.244 0 0 0 1.311-.124 4.34 4.34 0 0 0 1.006-.392v3.782c-.33.192-.686.337-1.056.429a4.022 4.022 0 0 1-.995.128 3.051 3.051 0 0 1-.755-.089V6.011a3.146 3.146 0 0 0 .488.073zm1.925.029-.137.046a4.61 4.61 0 0 1-1.772.252l-.109-.007v3.088l.094.008a3.632 3.632 0 0 0 1.166-.105c.242-.061.476-.145.701-.252l.059-.028V6.111zM11.897 11.012c-.02-.02-.043-.037-.07-.047s-.055-.016-.083-.015a.222.222 0 0 0-.157.062.225.225 0 0 0-.06.154v.514a.217.217 0 0 0 .071.174c.021.017.045.03.071.037s.051.011.077.011a.22.22 0 0 0 .213-.217v-.058h-.134v.046a.12.12 0 0 1-.008.046.072.072 0 0 1-.048.044.092.092 0 0 1-.028.005c-.012.001-.024 0-.035-.005s-.021-.013-.028-.022a.121.121 0 0 1-.018-.069v-.48a.17.17 0 0 1 .016-.077.067.067 0 0 1 .065-.031c.012 0 .023.002.034.007s.02.013.026.022c.015.02.023.044.022.069v.044h.133v-.052a.251.251 0 0 0-.016-.09.2.2 0 0 0-.045-.072zM12.695 11.006a.245.245 0 0 0-.153-.057.234.234 0 0 0-.151.056.218.218 0 0 0-.052.072.242.242 0 0 0-.02.1v.493a.234.234 0 0 0 .02.101c.012.027.03.05.052.069.021.019.045.034.071.043a.245.245 0 0 0 .16 0c.027-.01.051-.024.073-.043s.039-.043.051-.069a.234.234 0 0 0 .02-.101v-.493a.232.232 0 0 0-.071-.172zm-.062.665c.001.013-.001.026-.005.039s-.012.024-.021.033a.098.098 0 0 1-.126 0c-.009-.009-.017-.02-.021-.033s-.006-.026-.005-.039v-.493c-.001-.013.001-.026.005-.039s.012-.024.021-.033a.098.098 0 0 1 .126 0c.009.009.017.02.021.033s.006.026.005.039v.493zM13.745 11.891v-.934h-.129l-.17.494h-.002l-.171-.494h-.128v.934h.133v-.568h.002l.131.402h.067l.132-.402h.002v.568h.133zM14.503 11.023a.176.176 0 0 0-.075-.051.289.289 0 0 0-.097-.014h-.198v.934h.133v-.365h.069a.237.237 0 0 0 .12-.026.199.199 0 0 0 .073-.071.221.221 0 0 0 .03-.081.63.63 0 0 0 .007-.106.536.536 0 0 0-.013-.133.206.206 0 0 0-.049-.086zm-.069.285c-.001.017-.005.034-.012.049s-.02.026-.034.033a.136.136 0 0 1-.063.012h-.061v-.318h.069a.124.124 0 0 1 .06.012c.014.008.025.02.031.034a.152.152 0 0 1 .012.052v.126h-.001zM15.133 10.957h-.109l-.206.934h.133l.039-.201h.182l.039.201h.133l-.211-.934zm-.123.607.066-.339h.002l.065.339h-.133zM15.993 11.52h-.002l-.201-.563h-.128v.934h.133v-.562h.003l.203.562h.125v-.934h-.133v.563zM16.806 10.957l-.107.371h-.003l-.107-.371h-.141l.183.539v.395h.133v-.395l.183-.539h-.141zM11.525 12.155h.064v.18h.044v-.18h.064v-.037h-.171v.037zM12.065 12.118l-.084.217h.046l.018-.049h.086l.019.049h.047l-.086-.217h-.046zm-.007.131.03-.08.03.08h-.059zM12.598 12.255h.05v.028a.081.081 0 0 1-.051.018c-.009.001-.017-.001-.025-.005s-.015-.009-.021-.016a.095.095 0 0 1-.016-.057c0-.048.021-.072.062-.072.011-.001.022.002.031.008s.015.016.018.026l.043-.008c-.009-.042-.04-.064-.092-.064a.107.107 0 0 0-.076.028c-.011.011-.019.024-.025.038s-.008.03-.006.045a.118.118 0 0 0 .028.081c.011.011.024.019.038.025s.029.008.045.007a.13.13 0 0 0 .092-.034v-.085h-.094v.037zM13.142 12.118h-.044v.217h.152v-.037h-.108v-.18zM13.602 12.118h-.044v.217h.044v-.217zM14.052 12.263l-.089-.145h-.042v.217h.041v-.142l.087.142h.044v-.217h-.04v.145zM14.459 12.24h.108v-.037h-.108v-.048h.116v-.037h-.16v.217h.165v-.037h-.121v-.059zM15.446 12.204h-.085v-.086h-.044v.217h.044v-.095h.085v.095h.044v-.217h-.044v.086zM15.855 12.24h.108v-.037h-.108v-.048h.117v-.037h-.16v.217h.164v-.037h-.121v-.059zM16.41 12.24c.038-.006.057-.026.057-.06.001-.009 0-.019-.004-.027s-.01-.016-.017-.021a.126.126 0 0 0-.063-.013h-.092v.217h.044v-.091h.009a.05.05 0 0 1 .027.005.039.039 0 0 1 .015.016l.047.069h.052l-.026-.042a.15.15 0 0 0-.048-.052zm-.044-.03h-.032v-.054h.034a.13.13 0 0 1 .044.005c.003.003.006.006.007.01l.002.012-.003.012a.024.024 0 0 1-.008.009.13.13 0 0 1-.044.005zM16.828 12.24h.108v-.037h-.108v-.048h.117v-.037h-.161v.217h.165v-.037h-.121v-.059z" style="fill:var(--color3, #8e8f99)"/><path fill="#404bbf" d="M13.846 20.33h-.019c-.028-.002-.057-.002-.085-.003h-.062c-.054 0-.109.001-.163.004h-.012a3.842 3.842 0 0 0-1.426.364l-.059.028v3.002l.137-.047a4.673 4.673 0 0 1 1.479-.259v.394c-.049 0-.097.002-.144.004h-.011a4.394 4.394 0 0 0-1.851.522v-3.85c.33-.192.685-.337 1.055-.429.325-.084.659-.127.995-.128h.058c.069.002.137.005.2.01.167.012.333.038.496.079v.388a3.007 3.007 0 0 0-.48-.072l-.01-.001c-.034-.003-.067-.006-.098-.006zm.683.397a4.244 4.244 0 0 0 1.311-.124 4.34 4.34 0 0 0 1.006-.392v3.782c-.33.192-.686.337-1.056.429a4.022 4.022 0 0 1-.995.128 3.051 3.051 0 0 1-.755-.089v-3.806a3.146 3.146 0 0 0 .488.073zm1.925.029-.137.046a4.61 4.61 0 0 1-1.772.252l-.109-.007v3.088l.094.008a3.632 3.632 0 0 0 1.166-.105c.242-.061.476-.145.701-.252l.059-.028v-3.003zM11.897 25.656a.21.21 0 0 0-.153-.062.222.222 0 0 0-.157.062.225.225 0 0 0-.06.154v.514a.217.217 0 0 0 .071.174c.021.017.045.03.071.036s.051.011.077.011a.22.22 0 0 0 .213-.217v-.058h-.134v.046a.12.12 0 0 1-.008.046.072.072 0 0 1-.048.044.092.092 0 0 1-.028.005c-.012.001-.024-.001-.035-.005s-.021-.013-.028-.022a.121.121 0 0 1-.018-.069v-.48a.17.17 0 0 1 .016-.077.067.067 0 0 1 .065-.031c.012 0 .023.002.034.007s.02.013.026.022c.015.02.023.044.022.069v.044h.133v-.052a.251.251 0 0 0-.016-.09.2.2 0 0 0-.045-.072zM12.695 25.65a.245.245 0 0 0-.153-.057c-.027 0-.055.005-.08.015s-.05.024-.071.042a.218.218 0 0 0-.052.072.242.242 0 0 0-.02.1v.493a.234.234 0 0 0 .02.101c.012.027.03.05.052.069.021.019.045.034.071.043s.053.014.08.015a.234.234 0 0 0 .153-.058.203.203 0 0 0 .051-.069.234.234 0 0 0 .02-.101v-.493a.232.232 0 0 0-.071-.172zm-.062.665a.089.089 0 0 1-.026.072.098.098 0 0 1-.126 0c-.009-.009-.017-.02-.021-.033s-.006-.026-.005-.039v-.493c-.001-.013.001-.026.005-.039s.012-.024.021-.033a.098.098 0 0 1 .126 0c.009.009.017.02.021.033s.006.026.005.039v.493zM13.745 26.535v-.934h-.129l-.17.494h-.002l-.171-.494h-.128v.934h.133v-.568h.002l.131.402h.067l.132-.402h.002v.568h.133zM14.503 25.667a.176.176 0 0 0-.075-.051.289.289 0 0 0-.097-.014h-.198v.934h.133v-.365h.069a.237.237 0 0 0 .12-.026.215.215 0 0 0 .103-.152.63.63 0 0 0 .007-.106.536.536 0 0 0-.013-.133.206.206 0 0 0-.049-.086zm-.069.285c-.001.017-.005.034-.012.049s-.02.026-.034.033a.136.136 0 0 1-.063.012h-.061v-.318h.069a.124.124 0 0 1 .06.012c.014.008.025.02.031.034a.152.152 0 0 1 .012.052v.126h-.001zM15.133 25.602h-.109l-.206.934h.133l.039-.201h.182l.039.201h.133l-.211-.934zm-.123.606.066-.339h.002l.065.339h-.133zM15.993 26.164h-.002l-.201-.563h-.128v.934h.133v-.562h.003l.203.562h.125v-.934h-.133v.563zM16.806 25.602l-.107.371h-.003l-.107-.371h-.141l.183.539v.395h.133v-.395l.183-.539h-.141zM11.525 26.799h.064v.18h.044v-.18h.064v-.037h-.171v.037zM12.065 26.762l-.084.217h.046l.018-.049h.086l.019.049h.047l-.086-.217h-.046zm-.007.131.03-.08.03.08h-.059zM12.598 26.899h.05v.028a.081.081 0 0 1-.051.018c-.009 0-.017-.001-.025-.005s-.015-.009-.021-.016a.093.093 0 0 1-.016-.057c0-.048.021-.072.062-.072.011-.001.022.002.031.008s.015.016.018.026l.043-.008c-.009-.042-.04-.064-.092-.064a.107.107 0 0 0-.076.028c-.011.011-.019.024-.025.038s-.008.03-.006.045a.118.118 0 0 0 .028.081c.011.011.024.019.038.025s.029.008.045.007a.13.13 0 0 0 .092-.035v-.085h-.094v.036zM13.142 26.762h-.044v.217h.152v-.037h-.108v-.18zM13.602 26.762h-.044v.217h.044v-.217zM14.052 26.907l-.089-.145h-.042v.217h.041v-.142l.087.142h.044v-.217h-.04v.145zM14.459 26.884h.108v-.037h-.108V26.8h.116v-.037h-.16v.217h.165v-.037h-.121v-.059zM15.446 26.848h-.085v-.086h-.044v.217h.044v-.095h.085v.095h.044v-.217h-.044v.086zM15.855 26.884h.108v-.037h-.108V26.8h.117v-.037h-.16v.217h.164v-.037h-.121v-.059zM16.41 26.884c.038-.006.057-.026.057-.06.001-.009 0-.019-.004-.027s-.01-.016-.017-.021a.126.126 0 0 0-.063-.013h-.092v.217h.044v-.091h.009a.05.05 0 0 1 .027.005.039.039 0 0 1 .015.016l.047.069h.052l-.026-.042a.15.15 0 0 0-.048-.052zm-.044-.03h-.032V26.8h.034a.13.13 0 0 1 .044.005c.003.003.006.006.007.01l.002.012-.003.012a.024.024 0 0 1-.008.009.13.13 0 0 1-.044.005zM16.828 26.884h.108v-.037h-.108V26.8h.117v-.037h-.161v.217h.165v-.037h-.121v-.059z" style="fill:var(--color4, #404bbf)"/></symbol><symbol id="icon-Client-1" viewBox="0 0 28 32"><path fill="#8e8f99" d="m12.203 5.83.95.905-1.764-.001v4.392h4.61V9.447l.949.904V5.83h-4.746zm3.755 3.511-2.694-2.567h2.694v2.567zm-.836 1.143H12.12V7.53h.212v2.754h2.79v.2zm-2.404 1.457-.112-.23h-.092l.162.305v.177h.084v-.177l.162-.305h-.092l-.112.23zm.413-.231h.02l.182.482h-.087l-.039-.113h-.187l-.039.113h-.087l.181-.482h.056zm-.089.304h.141l-.071-.204-.07.204zm.583-.08a.273.273 0 0 1-.039-.061.133.133 0 0 1 .005-.113.105.105 0 0 1 .044-.042c.019-.01.041-.015.067-.015s.046.005.063.015a.103.103 0 0 1 .055.092c0 .015-.003.029-.008.042s-.013.024-.023.034a.246.246 0 0 1-.034.029l-.034.024.095.113a.2.2 0 0 0 .021-.091h.069c0 .023-.002.046-.007.067a.225.225 0 0 1-.036.079l.071.083h-.092l-.028-.033a.196.196 0 0 1-.124.04c-.032 0-.06-.006-.083-.018s-.041-.028-.054-.048a.13.13 0 0 1-.007-.122.16.16 0 0 1 .033-.042.443.443 0 0 1 .045-.036zm.039.048-.01.007c-.012.009-.02.019-.026.027s-.009.017-.011.024a.074.074 0 0 0 .006.057.064.064 0 0 0 .027.027c.012.007.026.01.043.01a.124.124 0 0 0 .078-.027l-.107-.126zm.019-.088.03-.02c.014-.009.024-.018.03-.027s.009-.02.009-.034c0-.011-.004-.022-.013-.032s-.021-.015-.037-.015a.049.049 0 0 0-.046.029c-.004.008-.006.018-.006.028s.002.02.008.031a.22.22 0 0 0 .026.04zm.844.142h-.083c-.002.021-.007.039-.015.053s-.019.025-.034.033a.118.118 0 0 1-.057.011c-.02 0-.036-.004-.05-.012s-.025-.019-.034-.033c-.009-.014-.015-.031-.02-.051s-.006-.042-.006-.066v-.041c0-.026.002-.048.007-.068s.012-.037.021-.051.021-.024.035-.031a.112.112 0 0 1 .05-.011c.023 0 .042.004.056.012s.025.019.032.034a.165.165 0 0 1 .014.053h.083c-.003-.032-.012-.061-.027-.086s-.035-.044-.062-.059a.205.205 0 0 0-.097-.021c-.03 0-.057.005-.082.016s-.045.026-.062.046-.03.044-.04.072-.014.059-.014.094v.04c0 .035.004.066.013.094s.022.052.039.072c.017.02.037.035.061.046s.051.016.081.016c.039 0 .072-.007.099-.021s.048-.033.063-.058a.184.184 0 0 0 .026-.084zm.459-.071v-.026c0-.036-.005-.069-.014-.098a.197.197 0 0 0-.104-.121.195.195 0 0 0-.081-.016.18.18 0 0 0-.144.063c-.018.02-.031.045-.041.074s-.015.061-.015.098v.026c0 .036.005.069.015.098s.024.054.042.074.039.036.063.047c.024.011.052.016.081.016s.057-.005.081-.016c.025-.011.046-.026.063-.047s.031-.045.041-.074.014-.062.014-.098zm-.083-.027v.027c0 .027-.003.051-.008.072s-.013.038-.023.053c-.01.014-.022.025-.036.032s-.031.011-.049.011a.102.102 0 0 1-.086-.043c-.01-.014-.018-.032-.023-.053s-.008-.045-.008-.072v-.027c0-.027.003-.051.008-.071s.013-.038.023-.052a.102.102 0 0 1 .086-.043.102.102 0 0 1 .086.043c.01.014.018.031.023.052a.302.302 0 0 1 .008.071z" style="fill:var(--color3, #8e8f99)"/><path fill="#404bbf" d="m12.203 20.475.95.905-1.764-.001v4.392h4.61v-1.679l.949.904v-4.521h-4.746zm3.755 3.51-2.694-2.567h2.694v2.567zm-.836 1.144H12.12v-2.954h.212v2.754h2.79v.2zm-2.404 1.456-.112-.23h-.092l.162.305v.177h.084v-.177l.162-.305h-.092l-.112.23zm.413-.231h.02l.182.482h-.087l-.039-.113h-.187l-.039.113h-.087l.181-.482h.056zm-.089.304h.141l-.071-.204-.07.204zm.583-.08a.273.273 0 0 1-.039-.061.133.133 0 0 1 .005-.113.105.105 0 0 1 .044-.042c.019-.01.041-.015.067-.015s.046.005.063.015a.103.103 0 0 1 .055.092c0 .015-.003.029-.008.042s-.013.024-.023.034a.246.246 0 0 1-.034.029l-.034.024.095.113a.198.198 0 0 0 .021-.09h.069c0 .023-.002.046-.007.067a.225.225 0 0 1-.036.079l.071.083h-.092l-.028-.033a.196.196 0 0 1-.124.04c-.032 0-.06-.006-.083-.018s-.041-.028-.054-.048a.127.127 0 0 1-.019-.07c0-.02.004-.037.012-.052s.019-.029.033-.042a.443.443 0 0 1 .045-.036zm.039.048-.01.007c-.012.009-.02.019-.026.028a.083.083 0 0 0-.014.043c0 .014.003.027.009.038s.015.021.027.027c.012.007.026.01.043.01a.124.124 0 0 0 .078-.027l-.107-.126zm.019-.088.03-.02c.014-.009.024-.018.03-.027s.009-.02.009-.034c0-.012-.004-.022-.013-.032s-.021-.015-.037-.015a.049.049 0 0 0-.046.029c-.004.008-.006.018-.006.028s.002.02.008.031a.22.22 0 0 0 .026.04zm.844.142h-.083c-.002.021-.007.039-.015.053s-.019.025-.034.033a.131.131 0 0 1-.057.011c-.02 0-.036-.004-.05-.012s-.025-.019-.034-.033c-.009-.014-.015-.031-.02-.051s-.006-.042-.006-.066v-.041c0-.026.002-.048.007-.068s.012-.037.021-.051.021-.024.035-.031a.112.112 0 0 1 .05-.011c.023 0 .042.004.056.012s.025.019.032.034a.165.165 0 0 1 .014.053h.083c-.003-.032-.012-.061-.027-.086s-.035-.044-.062-.059a.205.205 0 0 0-.097-.021c-.03 0-.057.005-.082.016s-.045.026-.062.046-.03.044-.04.072-.014.059-.014.094v.04c0 .035.004.066.013.094s.022.052.039.072c.017.02.037.035.061.046s.051.016.081.016c.039 0 .072-.007.099-.021s.048-.034.063-.058a.184.184 0 0 0 .026-.084zm.459-.071v-.026c0-.036-.005-.069-.014-.098a.197.197 0 0 0-.104-.121.195.195 0 0 0-.081-.016.18.18 0 0 0-.144.063c-.018.02-.031.045-.041.074s-.015.061-.015.098v.026c0 .036.005.069.015.098s.024.054.042.074c.018.02.039.036.063.047s.052.016.081.016c.03 0 .057-.005.081-.016s.046-.026.063-.047c.018-.02.031-.045.041-.074s.014-.062.014-.098zm-.083-.027v.027c0 .027-.003.051-.008.072s-.013.038-.023.053c-.01.014-.022.025-.036.032s-.031.011-.049.011a.102.102 0 0 1-.086-.043c-.01-.014-.018-.032-.023-.053s-.008-.045-.008-.072v-.027c0-.027.003-.051.008-.071s.013-.038.023-.052a.102.102 0 0 1 .086-.043.102.102 0 0 1 .086.043c.01.014.018.031.023.052a.302.302 0 0 1 .008.071z" style="fill:var(--color4, #404bbf)"/></symbol></defs></svg>